<svg width="301" height="240" viewBox="0 0 301 240" fill="none" xmlns="http://www.w3.org/2000/svg">
<path d="M3.18762 63C11.5996 45.8358 38.4659 13.7508 80.6876 22.0001" stroke="#00F2FF" stroke-width="4"/>
<path d="M82.7355 20.9317L52.1152 81.6238L58.0092 95.3966L99.3276 95.3899M99.3276 95.3899C96.6497 85.575 96.3982 62.5172 116.815 48.8056C137.233 35.0941 156.277 23.9993 163.248 20.1658L147.84 40.4193L163.103 33.0319L147.478 55.8273M99.3276 95.3899C100.83 99.9403 105.076 104.353 107.044 106.036C109.011 107.719 126.207 95.667 134.933 86.8761M142.492 63.1025L147.478 55.8273M147.478 55.8273L147.055 62.7468L168.285 37.678L161.767 48.2863L172.253 38.5166L134.933 86.8761M134.933 86.8761L158.662 85.0267L201.417 47.4915L191.567 27.1406L181.957 18.7076C195.909 4.30636 236.463 -10.6074 287.07 44.9476L237.428 23.5662L212.445 18.1678C212.281 29.8111 212.628 53.5042 215.326 55.1303L218.926 57.1452L168.989 108.554L150.225 162.331L82.7913 163.019M82.7913 163.019L187.842 161.947L225.266 164.999L253.686 149.699C266.134 156.258 267.015 162.663 265.9 165.045L251.499 156.986C245.384 161.977 232.523 172.697 229.999 175.648C227.474 178.599 228.949 190.651 230.002 196.307L239.206 202.476C255.273 205.999 264.705 215.486 267.413 219.79C250.833 223.837 228.18 205.325 218.926 195.564L180.342 192.373L85.0853 192.452L44.0243 169.254L61.7422 131.512L52.6818 121.292L33.341 105.813L31.7583 85.5059L61.2854 37.2947C43.8087 42.7887 8.12352 55.5784 5.19603 62.7848L3.19289 60.6455M82.7913 163.019C80.8 162.377 73.7204 158.748 70.5326 155.94C67.3447 153.131 67.2683 153.408 72.8583 144.052L82.7913 163.019Z" stroke="#00F2FF" stroke-width="4"/>
<path d="M115.248 78.7687L110.718 76.5967L120.206 68.7412L115.248 78.7687Z" stroke="#00F2FF" stroke-width="2"/>
<path d="M100.776 87.4721L98.2961 82.1562L98.8651 89.4575L103.574 93.911L118.588 83.3293L100.776 87.4721Z" stroke="#00F2FF" stroke-width="4"/>
</svg>
