<svg width="297" height="254" viewBox="0 0 297 254" fill="none" xmlns="http://www.w3.org/2000/svg">
<path d="M221.521 147.56L225.327 149.961L221.521 147.56ZM94.0205 4.56018L93.9173 0.0613651L94.0205 4.56018ZM27.521 47.5602L23.8506 44.9568V44.9568L27.521 47.5602ZM4.52021 127.06L0.0206952 127.126V127.126L4.52021 127.06ZM41.521 217.56L38.7019 221.068H38.7019L41.521 217.56ZM97.521 245.06L96.5975 249.464L97.521 245.06ZM171.521 242.56L172.698 246.904L171.521 242.56ZM239.521 194.56L242.814 197.627L242.944 197.488L243.061 197.338L239.521 194.56ZM253.521 147.56L249.073 148.245L253.521 147.56ZM287.521 9.56021L291.54 11.5857L296.084 2.57071L286.341 5.21763L287.521 9.56021ZM201.521 9.56021L203.094 5.34415L191.039 0.845786L197.663 11.8769L201.521 9.56021ZM231.521 109.56L227.048 109.067L231.521 109.56ZM258.521 79.5602L262.85 80.787V80.787L258.521 79.5602ZM221.521 147.56L217.715 145.16C214.86 149.686 213.037 150.934 212.375 151.154C212.28 151.186 212.272 151.173 212.325 151.175C212.38 151.178 212.404 151.192 212.374 151.179C212.275 151.135 211.867 150.906 211.219 150.08C209.877 148.371 208.408 145.288 206.842 140.712C205.312 136.238 203.824 130.759 202.278 124.568C199.217 112.321 195.933 97.2958 191.766 83.139C187.604 69.0007 182.392 55.091 175.189 44.9537L171.521 47.5602L167.853 50.1667C174.15 59.0293 179.027 71.7359 183.132 85.6805C187.232 99.6066 190.393 114.131 193.546 126.75C195.106 132.992 196.667 138.775 198.327 143.625C199.951 148.372 201.812 152.672 204.14 155.638C205.326 157.149 206.838 158.581 208.769 159.425C210.824 160.324 213.042 160.416 215.211 159.696C219.096 158.406 222.359 154.667 225.327 149.961L221.521 147.56ZM171.521 47.5602L175.189 44.9537C161.521 25.7176 149.757 14.0985 136.87 7.52249C123.926 0.917137 110.395 -0.31675 93.9173 0.0613651L94.0205 4.56018L94.1237 9.059C110.124 8.69185 121.843 9.95802 132.779 15.539C143.773 21.1494 154.52 31.4029 167.853 50.1667L171.521 47.5602ZM94.0205 4.56018L93.9173 0.0613651C77.4768 0.438623 64.4736 5.13178 53.2427 13.1515C42.1318 21.0854 32.932 32.1532 23.8506 44.9568L27.521 47.5602L31.1915 50.1636C40.1054 37.5962 48.6069 27.5208 58.4728 20.4758C68.2185 13.5167 79.4675 9.39531 94.1237 9.059L94.0205 4.56018ZM27.521 47.5602L23.8506 44.9568C6.17958 69.8705 -0.421233 96.957 0.0206952 127.126L4.52021 127.06L9.01973 126.994C8.60009 98.3469 14.8313 73.2292 31.1915 50.1636L27.521 47.5602ZM4.52021 127.06L0.0206952 127.126C0.309433 146.837 2.13321 164.081 7.85435 179.545C13.6164 195.119 23.2358 208.637 38.7019 221.068L41.521 217.56L44.3401 214.053C30.0454 202.563 21.4503 190.356 16.2952 176.422C11.0991 162.378 9.30298 146.331 9.01973 126.994L4.52021 127.06ZM41.521 217.56L38.7019 221.068C57.4522 236.138 72.7749 244.469 96.5975 249.464L97.521 245.06L98.4445 240.656C76.2745 236.007 62.2182 228.422 44.3401 214.053L41.521 217.56ZM97.521 245.06L96.5975 249.464C125.622 255.551 144.166 254.635 172.698 246.904L171.521 242.56L170.344 238.217C143.09 245.602 125.987 246.431 98.4445 240.656L97.521 245.06ZM171.521 242.56L172.698 246.904C189.288 242.408 206.924 229.845 220.092 218.847C226.754 213.284 232.418 207.994 236.419 204.095C238.421 202.144 240.01 200.538 241.103 199.414C241.649 198.852 242.072 198.411 242.361 198.107C242.505 197.955 242.616 197.838 242.692 197.757C242.73 197.717 242.759 197.686 242.779 197.664C242.789 197.653 242.797 197.644 242.803 197.638C242.806 197.635 242.808 197.633 242.81 197.631C242.811 197.63 242.812 197.629 242.812 197.628C242.813 197.628 242.814 197.627 239.521 194.56C236.227 191.493 236.228 191.493 236.228 191.493C236.228 191.493 236.228 191.493 236.228 191.493C236.227 191.494 236.226 191.495 236.224 191.497C236.221 191.5 236.216 191.506 236.208 191.514C236.193 191.53 236.169 191.556 236.136 191.591C236.071 191.66 235.971 191.766 235.838 191.906C235.572 192.186 235.173 192.603 234.651 193.139C233.608 194.211 232.076 195.761 230.137 197.65C226.257 201.432 220.766 206.559 214.323 211.94C201.283 222.83 184.919 234.267 170.344 238.217L171.521 242.56ZM239.521 194.56C243.061 197.338 243.062 197.336 243.063 197.335C243.063 197.335 243.064 197.333 243.065 197.332C243.067 197.33 243.069 197.328 243.071 197.325C243.076 197.319 243.081 197.312 243.088 197.304C243.101 197.287 243.118 197.264 243.14 197.236C243.182 197.181 243.241 197.103 243.316 197.005C243.464 196.807 243.673 196.525 243.932 196.163C244.451 195.44 245.174 194.396 246.023 193.073C247.718 190.432 249.931 186.652 252.023 182.065C256.17 172.97 260.034 160.282 257.969 146.875L253.521 147.56L249.073 148.245C250.762 159.206 247.625 170.017 243.834 178.331C241.956 182.448 239.965 185.849 238.449 188.213C237.692 189.392 237.057 190.307 236.62 190.917C236.401 191.222 236.232 191.45 236.122 191.596C236.067 191.669 236.027 191.721 236.003 191.753C235.991 191.768 235.983 191.779 235.979 191.784C235.977 191.786 235.976 191.788 235.976 191.787C235.976 191.787 235.977 191.787 235.977 191.786C235.978 191.786 235.978 191.785 235.978 191.785C235.979 191.784 235.98 191.783 239.521 194.56ZM287.521 9.56021L286.341 5.21763C268.8 9.98349 256.147 12.965 243.812 13.3201C231.611 13.6714 219.461 11.4512 203.094 5.34415L201.521 9.56021L199.948 13.7763C217.081 20.1691 230.409 22.7097 244.071 22.3164C257.6 21.9269 271.198 18.6584 288.701 13.9028L287.521 9.56021ZM201.521 9.56021L197.663 11.8769C219.414 48.0973 231.34 70.1303 227.048 109.067L231.521 109.56L235.994 110.053C240.637 67.9372 227.242 43.6509 205.379 7.24349L201.521 9.56021ZM231.521 109.56L227.048 109.067C225.332 124.633 225.235 133.235 217.715 145.16L221.521 147.56L225.327 149.961C234.179 135.926 234.347 124.993 235.994 110.053L231.521 109.56ZM253.521 147.56L257.969 146.875C254.331 123.265 256.561 102.983 262.85 80.787L258.521 79.5602L254.191 78.3334C247.621 101.518 245.203 123.121 249.073 148.245L253.521 147.56ZM258.521 79.5602L262.85 80.787C266.79 66.8821 273.927 49.6285 280.153 35.7232C283.253 28.7987 286.104 22.7563 288.179 18.4462C289.216 16.2918 290.059 14.5718 290.641 13.3926C290.932 12.8031 291.158 12.3488 291.31 12.0432C291.387 11.8904 291.445 11.7748 291.483 11.6979C291.502 11.6595 291.517 11.6308 291.526 11.6121C291.531 11.6027 291.534 11.5958 291.537 11.5914C291.538 11.5892 291.539 11.5876 291.539 11.5866C291.539 11.5862 291.539 11.5859 291.54 11.5857C291.54 11.5856 291.54 11.5857 287.521 9.56021C283.503 7.53473 283.503 7.53512 283.502 7.53568C283.502 7.53607 283.502 7.53679 283.501 7.53758C283.501 7.53916 283.499 7.54137 283.498 7.54421C283.495 7.54989 283.491 7.55809 283.486 7.56877C283.475 7.59013 283.459 7.62144 283.439 7.66248C283.397 7.74457 283.337 7.86561 283.258 8.02394C283.1 8.34058 282.868 8.80641 282.571 9.40808C281.977 10.6113 281.121 12.3583 280.07 14.5423C277.967 18.9089 275.08 25.0286 271.939 32.0455C265.681 46.0228 258.318 63.7692 254.191 78.3334L258.521 79.5602Z" fill="#00F2FF"/>
<path d="M64.5205 144.56C43.608 146.783 9.52051 165.06 9.52051 165.06C9.52051 165.06 14.597 184.575 23.5205 190.56C35.7465 198.76 43.7999 176.702 58.5205 176.56C73.6044 176.415 81.8653 182.351 94.5205 190.56C104.724 197.179 105.944 207.83 117.521 211.56C126.07 214.315 133.029 216.515 140.521 211.56C149.606 205.551 149.017 195.35 147.521 184.56C145.206 167.873 132.133 161.944 117.521 153.56C99.311 143.112 85.397 142.341 64.5205 144.56Z" stroke="#00F2FF" stroke-width="5"/>
<path d="M126.646 65.5586C131.866 66.4907 134.991 71.7073 136.506 77.5788C138.081 83.6843 138.252 91.5831 136.771 99.8731C135.291 108.163 132.397 115.514 128.806 120.697C125.352 125.682 120.614 129.494 115.395 128.562C110.176 127.63 107.05 122.413 105.535 116.542C103.96 110.436 103.789 102.537 105.27 94.2474C106.75 85.9574 109.645 78.6061 113.235 73.4231C116.689 68.4388 121.427 64.6265 126.646 65.5586Z" stroke="#00F2FF" stroke-width="5"/>
<path d="M63.6218 48.4724C68.8413 49.4045 71.9669 54.6212 73.4816 60.4926C75.0566 66.5982 75.2275 74.4969 73.747 82.7869C72.2666 91.0769 69.3723 98.4282 65.7813 103.611C62.328 108.595 57.59 112.408 52.3706 111.476C47.1511 110.544 44.0255 105.327 42.5108 99.4555C40.9358 93.3499 40.7649 85.4512 42.2454 77.1612C43.7258 68.8712 46.6201 61.5199 50.211 56.3369C53.6644 51.3527 58.4024 47.5403 63.6218 48.4724Z" stroke="#00F2FF" stroke-width="5"/>
</svg>
