<svg width="277" height="258" viewBox="0 0 277 258" fill="none" xmlns="http://www.w3.org/2000/svg">
<path d="M173.457 169.197L175.542 173.184L173.457 169.197ZM145.535 32.7342L147.706 28.7924L145.535 32.7342ZM88.0265 35.477L86.1607 31.3821V31.3821L88.0265 35.477ZM44.5308 77.0524L40.6072 74.849L44.5308 77.0524ZM34.7365 147.458L30.5369 149.074V149.074L34.7365 147.458ZM59.8957 185.198L56.8847 188.543L59.8957 185.198ZM107.327 210.655L106.163 215.001L107.327 210.655ZM167.606 205.316L168.912 209.623L169.095 209.567L169.272 209.497L167.606 205.316ZM193.573 180.884L189.383 179.242L193.573 180.884ZM265.35 106.552L267.807 110.322L276.265 104.81L266.511 102.204L265.35 106.552ZM211.287 75.1408L214.766 72.2857L206.602 62.3399L206.788 75.2059L211.287 75.1408ZM193.622 148.961L190.002 146.288L193.622 148.961ZM221.552 139.963L224.679 143.199V143.199L221.552 139.963ZM173.457 169.197L171.372 165.209C169.79 166.036 168.6 166.504 167.741 166.735C166.858 166.973 166.566 166.896 166.645 166.913C166.857 166.957 167.181 167.138 167.376 167.405C167.491 167.562 167.366 167.486 167.277 166.848C167.088 165.499 167.253 163.194 167.935 159.77C168.596 156.452 169.651 152.506 170.937 148.056C173.472 139.289 176.915 128.577 179.474 118.124C182.028 107.689 183.875 96.8767 183.031 87.6607L178.549 88.0716L174.068 88.4824C174.77 96.1413 173.238 105.745 170.732 115.984C168.231 126.204 164.933 136.421 162.292 145.556C160.99 150.057 159.848 154.304 159.109 158.011C158.391 161.613 157.953 165.166 158.364 168.096C158.574 169.598 159.049 171.267 160.116 172.723C161.263 174.289 162.89 175.323 164.807 175.723C168.174 176.426 171.932 175.072 175.542 173.184L173.457 169.197ZM178.549 88.0716L183.031 87.6607C181.457 70.4974 178.279 58.6655 172.423 49.5812C166.531 40.4427 158.26 34.6045 147.706 28.7924L145.535 32.7342L143.365 36.6759C153.5 42.2575 160.188 47.2132 164.858 54.4576C169.563 61.7562 172.547 71.8962 174.068 88.4824L178.549 88.0716ZM145.535 32.7342L147.706 28.7924C137.02 22.9073 126.886 21.0555 116.648 22.0183C106.558 22.9672 96.5819 26.6338 86.1607 31.3821L88.0265 35.477L89.8922 39.572C100.05 34.9439 108.924 31.7844 117.491 30.9787C125.911 30.1868 134.242 31.6518 143.365 36.6759L145.535 32.7342ZM88.0265 35.477L86.1607 31.3821C65.6712 40.7177 51.4501 55.5412 40.6072 74.849L44.5308 77.0524L48.4545 79.2558C58.5521 61.275 71.4647 47.9682 89.8922 39.572L88.0265 35.477ZM44.5308 77.0524L40.6072 74.849C33.5643 87.3901 28.3339 99.0393 26.2471 111.053C24.1402 123.183 25.2809 135.42 30.5369 149.074L34.7365 147.458L38.9361 145.841C34.22 133.589 33.3067 123 35.1143 112.594C36.9422 102.071 41.595 91.4705 48.4545 79.2558L44.5308 77.0524ZM34.7365 147.458L30.5369 149.074C36.8744 165.539 43.5622 176.547 56.8847 188.543L59.8957 185.198L62.9068 181.854C50.8392 170.989 44.8717 161.261 38.9361 145.841L34.7365 147.458ZM59.8957 185.198L56.8847 188.543C73.0613 203.108 85.2291 209.394 106.163 215.001L107.327 210.655L108.492 206.308C88.8361 201.043 77.9579 195.406 62.9068 181.854L59.8957 185.198ZM107.327 210.655L106.163 215.001C118.509 218.308 134.412 216.807 146.729 214.699C152.987 213.628 158.512 212.365 162.473 211.369C164.455 210.871 166.052 210.438 167.159 210.128C167.712 209.974 168.144 209.849 168.44 209.763C168.588 209.719 168.703 209.685 168.782 209.662C168.822 209.65 168.853 209.641 168.874 209.634C168.885 209.631 168.894 209.628 168.9 209.626C168.903 209.625 168.906 209.624 168.908 209.624C168.909 209.624 168.91 209.623 168.911 209.623C168.912 209.623 168.912 209.623 167.606 205.316C166.299 201.01 166.299 201.01 166.3 201.01C166.3 201.01 166.3 201.01 166.3 201.01C166.299 201.01 166.299 201.01 166.297 201.011C166.294 201.012 166.289 201.013 166.282 201.015C166.268 201.02 166.244 201.027 166.212 201.036C166.148 201.056 166.048 201.085 165.916 201.124C165.65 201.201 165.252 201.316 164.733 201.462C163.695 201.752 162.176 202.164 160.279 202.64C156.481 203.595 151.188 204.805 145.211 205.828C133.058 207.907 118.822 209.075 108.492 206.308L107.327 210.655ZM167.606 205.316C169.272 209.497 169.273 209.496 169.275 209.496C169.275 209.495 169.277 209.495 169.278 209.494C169.28 209.493 169.283 209.492 169.286 209.491C169.291 209.489 169.298 209.486 169.306 209.483C169.323 209.476 169.344 209.468 169.369 209.457C169.421 209.436 169.49 209.407 169.577 209.371C169.75 209.297 169.993 209.193 170.297 209.056C170.905 208.783 171.76 208.382 172.797 207.85C174.867 206.788 177.691 205.19 180.739 203.03C186.764 198.76 194.041 192.023 197.763 182.526L193.573 180.884L189.383 179.242C186.565 186.435 180.858 191.914 175.535 195.687C172.908 197.549 170.466 198.93 168.689 199.842C167.804 200.296 167.09 200.631 166.609 200.846C166.37 200.954 166.189 201.032 166.074 201.08C166.017 201.104 165.977 201.121 165.954 201.13C165.942 201.135 165.935 201.138 165.933 201.139C165.932 201.139 165.932 201.139 165.933 201.139C165.933 201.139 165.934 201.138 165.935 201.138C165.936 201.138 165.937 201.137 165.937 201.137C165.938 201.137 165.94 201.136 167.606 205.316ZM265.35 106.552L266.511 102.204C253.738 98.7918 244.826 96.0756 237.086 91.8714C229.463 87.731 222.753 82.0164 214.766 72.2857L211.287 75.1408L207.809 77.9959C216.315 88.3585 223.883 94.9421 232.79 99.7802C241.581 104.555 251.453 107.497 264.188 110.899L265.35 106.552ZM211.287 75.1408L206.788 75.2059C207.232 105.89 206.663 123.73 190.002 146.288L193.622 148.961L197.242 151.635C215.802 126.504 216.234 105.978 215.787 75.0757L211.287 75.1408ZM193.622 148.961L190.002 146.288C183.188 155.515 180.153 160.618 171.372 165.209L173.457 169.197L175.542 173.184C186.534 167.437 190.801 160.355 197.242 151.635L193.622 148.961ZM193.573 180.884L197.763 182.526C204.023 166.551 212.72 154.758 224.679 143.199L221.552 139.963L218.425 136.728C205.726 149 196.203 161.84 189.383 179.242L193.573 180.884ZM221.552 139.963L224.679 143.199C232.168 135.962 242.896 127.766 251.879 121.304C256.346 118.092 260.335 115.341 263.207 113.394C264.642 112.421 265.797 111.65 266.59 111.124C266.987 110.86 267.294 110.658 267.5 110.523C267.603 110.455 267.681 110.404 267.732 110.37C267.758 110.353 267.777 110.341 267.79 110.333C267.796 110.329 267.8 110.326 267.803 110.324C267.805 110.323 267.806 110.322 267.806 110.322C267.807 110.322 267.807 110.322 267.807 110.321C267.807 110.321 267.807 110.322 265.35 106.552C262.893 102.781 262.892 102.782 262.892 102.782C262.892 102.782 262.891 102.783 262.891 102.783C262.889 102.784 262.888 102.785 262.886 102.786C262.882 102.789 262.876 102.792 262.869 102.797C262.854 102.807 262.832 102.821 262.804 102.84C262.747 102.877 262.664 102.931 262.556 103.002C262.34 103.144 262.022 103.354 261.614 103.624C260.798 104.166 259.619 104.954 258.157 105.945C255.233 107.927 251.173 110.726 246.624 113.998C237.577 120.505 226.406 129.015 218.425 136.728L221.552 139.963Z" fill="#00FFDD"/>
<path d="M75.8572 109.968C61.899 103.727 33.7951 102.767 33.7951 102.767C33.7951 102.767 29.8587 116.888 33.2823 123.91C37.973 133.53 51.0923 122.605 60.3978 127.893C69.9329 133.311 72.958 140.059 77.9151 149.842C81.9121 157.73 78.7885 164.871 84.7036 171.444C89.0718 176.298 92.6428 180.223 99.1621 179.844C107.068 179.385 110.424 172.757 113.424 165.428C118.064 154.093 112.011 145.591 105.888 134.983C98.2565 121.764 89.7914 116.198 75.8572 109.968Z" stroke="#00FFDD" stroke-width="5"/>
<path d="M144.208 82.4756C147.476 85.2458 147.437 90.0431 146.231 94.3378C144.959 98.8653 142.126 103.978 138.119 108.706C134.112 113.434 129.532 117.067 125.275 119.064C121.236 120.958 116.51 121.783 113.241 119.013C109.973 116.243 110.011 111.445 111.217 107.15C112.489 102.623 115.322 97.5095 119.329 92.7817C123.336 88.0539 127.916 84.4209 132.174 82.4239C136.213 80.5296 140.939 79.7055 144.208 82.4756Z" stroke="#00FFDD" stroke-width="5"/>
<path d="M110.829 48.7156C114.097 51.4858 114.059 56.2831 112.852 60.5778C111.58 65.1053 108.747 70.2184 104.74 74.9462C100.733 79.6741 96.1539 83.307 91.8961 85.304C87.8572 87.1983 83.1313 88.0227 79.8627 85.2529C76.5942 82.4827 76.6322 77.6851 77.8389 73.3901C79.1108 68.8625 81.9439 63.7495 85.9508 59.0217C89.9578 54.2939 94.5372 50.6609 98.795 48.6639C102.834 46.7696 107.561 45.9455 110.829 48.7156Z" stroke="#00FFDD" stroke-width="5"/>
</svg>
