<svg width="409" height="336" viewBox="0 0 409 336" fill="none" xmlns="http://www.w3.org/2000/svg">
<path d="M300.485 289.5L282.485 276L258.485 286L244.985 295L230.985 295.5L222.985 284L224.985 274.5V268L209.485 264L194.485 268L177.985 265.5L165.985 256L149.985 260L129.985 268L103.985 277L92.9854 279M220.985 77.5L207.82 44.1749C206.814 41.63 203.206 41.6494 202.228 44.2049L189.485 77.5H177.485L161.985 62.5L146.485 61L116.485 84L117.485 105.5L130.985 120L147.985 126.5L175.985 164L174.485 175L180.985 185L192.985 190.5L220.985 196L231.985 188.5L251.485 129.5L243.985 95L220.985 77.5Z" stroke="#00FFDD" stroke-width="5"/>
<path d="M200.985 4.5C285.794 4.5 354.985 77.4511 354.985 168C354.985 258.549 285.794 331.5 200.985 331.5C116.177 331.5 46.9854 258.549 46.9854 168C46.9854 77.4511 116.177 4.5 200.985 4.5Z" stroke="#00FFDD" stroke-width="9"/>
<path d="M8.4853 164C18.9077 151.108 49.4853 153 49.4853 153C49.4853 153 49.0983 164.842 44.4853 170C38.1033 177.136 24.5468 166.33 20.4853 175C18.3316 179.597 20.4853 188 20.4853 188C20.4853 188 77.0853 195.458 113.485 199C178.125 205.29 214.541 208.946 279.485 209C321.301 209.035 386.485 205 386.485 205C386.485 205 391.145 197.536 389.485 193C387.107 186.501 379.405 188.104 372.485 188C365.191 187.89 354.485 193 354.485 193L359.485 175C359.485 175 378.82 170.152 389.485 175C398.535 179.114 404.47 183.527 407.485 193C410.621 202.853 408.369 210.497 402.485 219C395.128 229.631 384.674 228.69 372.485 233C338.173 245.132 315.88 239.054 279.485 239C214.19 238.904 178.34 226.578 113.485 219C79.5171 215.031 26.4853 209 26.4853 209C26.4853 209 2.93907 200.819 0.4853 188C-1.37206 178.297 2.27402 171.683 8.4853 164Z" fill="#00FFD0"/>
</svg>
