<svg width="222" height="133" viewBox="0 0 222 133" fill="none" xmlns="http://www.w3.org/2000/svg">
<path d="M109.866 73.3477C111.723 76.1532 131.767 103.352 132.967 105.886M132.967 105.886L218.107 108.946C220.498 77.7571 188.763 14.347 139.741 7.0633C120.563 4.21384 101.075 2.55529 83.0205 3.10446M132.967 105.886C150.127 142.114 86.0881 132.09 57.7242 103.762L3.2857 49.3937C3.84769 46.8613 3.71774 46.7175 5.40491 42.1643M83.0205 3.10446C46.407 4.21816 15.6888 14.4113 5.40491 42.1643M83.0205 3.10446C113.366 3.99554 117.987 35.6422 109.459 47.8477C94.1934 69.6953 29.8581 76.977 5.40491 42.1643" stroke="#00F2FF" stroke-width="6"/>
</svg>
